HIERARCHY
ROOT root
{
	OFFSET	0	13.1	24.9
	CHANNELS 6  Xposition Yposition Zposition Xrotation Yrotation Zrotation
	JOINT spine_1
	{
		OFFSET	0	9.99999	0
		CHANNELS 3  Xrotation Yrotation Zrotation
		JOINT spine_2
		{
			OFFSET	0	112	-10
			CHANNELS 3  Xrotation Yrotation Zrotation
			JOINT spine_3
			{
				OFFSET	0	206.5	19.3
				CHANNELS 3  Xrotation Yrotation Zrotation
				JOINT spine_4
				{
					OFFSET	0	110.4	14.6
					CHANNELS 3  Xrotation Yrotation Zrotation
					JOINT neck_1
					{
						OFFSET	0	71.8	-50.3
						CHANNELS 3  Xrotation Yrotation Zrotation
						JOINT neck_2
						{
							OFFSET	0	86.2	-25.8
							CHANNELS 3  Xrotation Yrotation Zrotation
							JOINT head_ee
							{
								OFFSET	0	179.8	-8.7
								CHANNELS 3  Xrotation Yrotation Zrotation
								End Site
								{
									OFFSET	1	0	0
								}
							}
						}
					}
					JOINT left_clavicle
					{
						OFFSET	-43.2	22.4	-70.8
						CHANNELS 3  Xrotation Yrotation Zrotation
						JOINT left_shoulder
						{
							OFFSET	-93.9	-5.79999	48.7
							CHANNELS 3  Xrotation Yrotation Zrotation
							JOINT left_elbow
							{
								OFFSET	-291.4	-30.8	15.2
								CHANNELS 3  Xrotation Yrotation Zrotation
								JOINT left_lowarm_twist
								{
									OFFSET	-110.7	-3.89999	13.6
									CHANNELS 3  Xrotation Yrotation Zrotation
									JOINT left_hand
									{
										OFFSET	-110.7	-3.89999	13.6
										CHANNELS 3  Xrotation Yrotation Zrotation
										JOINT left_ee
										{
											OFFSET	-80.8	-5.10001	12.1
											CHANNELS 3  Xrotation Yrotation Zrotation
											End Site
											{
												OFFSET	1	0	0
											}
										}
									}
								}
							}
						}
					}
					JOINT right_clavicle
					{
						OFFSET	43.2	22.4	-70.8
						CHANNELS 3  Xrotation Yrotation Zrotation
						JOINT right_shoulder
						{
							OFFSET	93.9	-5.79999	48.7
							CHANNELS 3  Xrotation Yrotation Zrotation
							JOINT right_elbow
							{
								OFFSET	291.4	-30.8	15.2
								CHANNELS 3  Xrotation Yrotation Zrotation
								JOINT right_lowarm_twist
								{
									OFFSET	110.7	-3.89999	13.6
									CHANNELS 3  Xrotation Yrotation Zrotation
									JOINT right_hand
									{
										OFFSET	110.7	-3.89999	13.6
										CHANNELS 3  Xrotation Yrotation Zrotation
										JOINT right_ee
										{
											OFFSET	80.8	-5.10001	12.1
											CHANNELS 3  Xrotation Yrotation Zrotation
											End Site
											{
												OFFSET	1	0	0
											}
										}
									}
								}
							}
						}
					}
				}
			}
		}
	}
	JOINT left_hip
	{
		OFFSET	-82.8	-127.5	0.300001
		CHANNELS 3  Xrotation Yrotation Zrotation
		JOINT left_knee
		{
			OFFSET	-28.2	-396.7	2.2
			CHANNELS 3  Xrotation Yrotation Zrotation
			JOINT left_ankle
			{
				OFFSET	-11.7	-411.3	35.4
				CHANNELS 3  Xrotation Yrotation Zrotation
				JOINT left_toes
				{
					OFFSET	0	-60	-88.6
					CHANNELS 3  Xrotation Yrotation Zrotation
					JOINT left_foot_ee
					{
						OFFSET	-22.5	-16.5	-42.2
						CHANNELS 3  Xrotation Yrotation Zrotation
						End Site
						{
							OFFSET	1	0	0
						}
					}
				}
			}
		}
	}
	JOINT right_hip
	{
		OFFSET	82.8	-127.5	0.300001
		CHANNELS 3  Xrotation Yrotation Zrotation
		JOINT right_knee
		{
			OFFSET	28.2	-396.7	2.2
			CHANNELS 3  Xrotation Yrotation Zrotation
			JOINT right_ankle
			{
				OFFSET	11.7	-411.3	35.4
				CHANNELS 3  Xrotation Yrotation Zrotation
				JOINT right_toes
				{
					OFFSET	0	-60	-88.6
					CHANNELS 3  Xrotation Yrotation Zrotation
					JOINT right_foot_ee
					{
						OFFSET	22.5	-16.5	-42.2
						CHANNELS 3  Xrotation Yrotation Zrotation
						End Site
						{
							OFFSET	1	0	0
						}
					}
				}
			}
		}
	}
}
MOTION
Frames: 7
Frame Time: 0.02
2936.66340421 690.737 -1945.57913073 -20.8855779929 34.1448074896 16.8948526921 8.52462 -0.236878 -0.735603 8.52491 -0.189591 -0.749185 8.52683 -0.142112 -0.759622 8.52612 -0.260293 -0.727648 -17.5635 4.28836 3.49986 -17.5729 6.31888 4.87637 -0.0 0.0 -0.0 8.2484 3.86461 15.9689 5.97427 18.4579 62.6404 0.66522 -18.2387 0.106783 84.4972 -4.36642 -8.84268 -0.941259 -9.40716 -10.4063 -0.0 0.0 -0.0 6.43999 -7.19841 -12.4498 -30.6647 28.1485 -63.4666 0.275183 7.76274 -0.0186702 -10.4893 0.485392 -1.24828 4.97046 -5.27501 -37.6737 0.0 0.0 0.0 27.2186 22.7597 -4.34385 -11.8915 0.30413 1.79633 35.8855 -1.26504 -4.51451 8.1627 -0.0 -0.0 -0.0 0.0 -0.0 40.0711 17.1471 -10.385 -54.4402 1.63047 -7.88512 12.823 -25.1728 1.89131 24.8812 -0.0 -0.0 0.0 0.0 0.0 
2921.91254701 697.358 -1954.61600657 -22.150875218 34.9230593246 17.9668519948 8.66427 -0.386816 -0.788267 8.66456 -0.335874 -0.811281 8.6687 -0.286274 -0.830081 8.66797 -0.413773 -0.774457 -17.3738 2.32678 2.71428 -17.3623 2.96878 3.4014 -0.0 0.0 -0.0 8.37811 1.55786 16.3056 6.06036 17.7238 62.1896 0.798939 -21.5921 0.152351 84.5074 -4.36763 -8.84316 -0.424227 -4.82197 -4.90705 -0.0 0.0 -0.0 6.31235 -11.1069 -12.1245 -33.4745 32.5037 -61.3778 0.22084 6.24336 -0.0120441 -10.2171 0.46993 -1.21707 5.56066 -6.70798 -43.417 0.0 0.0 0.0 22.5406 34.3706 -4.04408 -3.23552 0.119629 0.482073 32.3216 -10.4953 -4.30461 4.42415 -0.0 -0.0 -0.0 0.0 -0.0 49.7251 18.3254 -14.377 -54.4139 1.62792 -7.88196 4.1963 -27.0687 0.641818 24.5025 -0.0 -0.0 0.0 0.0 0.0 
2891.56272731 695.974 -1964.59363826 -23.4041372034 35.6043321276 19.001621566 9.03113 -0.0456042 -0.870487 9.03155 0.00987736 -0.871624 9.03059 0.0570359 -0.869812 9.02954 -0.0810453 -0.867905 -16.5206 2.02706 3.40613 -16.4913 1.95362 3.91728 -0.0 0.0 -0.0 8.34949 -0.703191 16.304 4.76404 16.6497 62.3751 0.993543 -26.2046 0.231252 84.9191 -4.41684 -8.86239 0.301906 0.476608 2.21483 -0.0 0.0 -0.0 7.16927 -11.7763 -13.5956 -36.1836 32.6542 -58.2633 0.191902 5.43051 -0.00910114 -9.509 0.430414 -1.13557 6.05258 -6.87293 -48.2266 0.0 0.0 0.0 23.772 45.4636 -6.01355 -1.11321 0.0442335 0.165107 30.6367 -20.8739 -4.43391 1.52411 -0.0 -0.0 -0.0 0.0 -0.0 51.4786 19.2175 -14.5921 -54.3473 1.62149 -7.87396 2.03944 -26.0462 0.311731 25.5665 -0.0 -0.0 0.0 0.0 0.0 
2859.08818419 699.404 -1967.19070141 -22.9082293636 37.0560940067 18.7326511467 8.88482 0.111935 -0.80454 8.88517 0.162902 -0.795787 8.88229 0.207779 -0.785266 8.88144 0.0811571 -0.808224 -16.7831 2.61103 4.0502 -16.7439 2.72896 4.73655 -0.0 0.0 -0.0 8.26219 -1.69386 16.1419 3.39806 15.8956 62.831 1.30179 -32.8151 0.383339 84.5946 -4.37804 -8.84727 1.20631 4.06234 9.7026 -0.0 0.0 -0.0 8.10919 -15.0169 -14.9808 -44.4787 33.4944 -53.9882 0.198738 5.62273 -0.00975941 -8.80553 0.392159 -1.05412 6.20203 -2.79634 -47.934 0.0 0.0 0.0 26.1995 55.6855 -8.84095 -1.51538 0.0594228 0.224958 32.6392 -31.3847 -5.21944 -2.75845 0.0 0.0 -0.0 0.0 -0.0 52.8323 19.8271 -14.818 -52.8498 1.47932 -7.69221 -2.30026 -25.903 -0.35461 26.8314 -0.0 -0.0 0.0 0.0 0.0 
2820.45911951 696.867 -1977.11393182 -24.4007916174 36.5645321848 19.2844845889 9.01076 0.0463069 -0.533814 9.01091 0.0801806 -0.529786 9.00988 0.108926 -0.52463 9.0095 0.024705 -0.535249 -15.6478 4.34456 4.41211 -15.6222 5.74973 5.63528 -0.0 0.0 -0.0 6.97096 -4.55979 13.4904 1.60802 14.8898 62.6442 1.6886 -39.9085 0.613111 83.5509 -4.25386 -8.79713 3.79656 10.0667 29.9866 -0.0 0.0 -0.0 9.93794 -18.1578 -17.6569 -54.2403 33.7576 -46.748 0.322008 9.06328 -0.0255216 -7.05612 0.301395 -0.849628 6.45046 6.43193 -45.3172 0.0 0.0 0.0 29.3725 62.1211 -13.5887 -7.88184 0.243379 1.18419 37.1041 -33.5069 -5.88806 -3.91273 0.0 0.0 -0.0 0.0 -0.0 54.5764 19.2969 -14.297 -34.4961 0.154235 -5.21268 -23.7274 -29.3613 -3.81573 29.0932 -0.0 -0.0 0.0 0.0 0.0 
2795.18567951 698.473 -1986.61779361 -25.8708526217 35.975027425 20.3226625452 9.43588 -0.169299 -0.63172 9.43609 -0.128759 -0.641212 9.43706 -0.0984668 -0.646557 9.43654 -0.199341 -0.622893 -14.9472 4.63041 4.03377 -14.9357 6.45604 5.33537 -0.0 0.0 -0.0 6.39959 -5.73 12.2873 0.802486 14.4961 62.5181 1.72126 -40.4494 0.634184 82.0917 -4.0818 -8.72325 4.56502 13.6866 37.0532 -0.0 0.0 -0.0 10.2704 -18.4201 -18.1662 -57.9722 34.3145 -43.6855 0.405057 11.3461 -0.040238 -5.70026 0.235378 -0.68931 6.69182 11.6332 -44.1937 0.0 0.0 0.0 30.7072 63.6043 -15.2313 -9.60952 0.274809 1.44743 36.5471 -32.569 -5.75289 -2.24252 0.0 0.0 -0.0 0.0 -0.0 54.2093 19.7894 -13.7595 -30.2213 -0.035527 -4.58433 -23.0777 -29.4446 -3.713 28.8667 -0.0 -0.0 0.0 0.0 0.0 
2795.8746916 698.473 -1987.44504205 -25.8316089889 35.8632165874 20.2557672897 9.43588 -0.169299 -0.63172 9.43609 -0.128759 -0.641212 9.43706 -0.0984668 -0.646557 9.43654 -0.199341 -0.622893 -14.9472 4.63041 4.03377 -14.9357 6.45604 5.33537 -0.0 0.0 -0.0 6.39959 -5.73 12.2873 0.802486 14.4961 62.5181 1.72126 -40.4494 0.634184 82.0917 -4.0818 -8.72325 4.56502 13.6866 37.0532 -0.0 0.0 -0.0 10.2704 -18.4201 -18.1662 -57.9722 34.3145 -43.6855 0.405057 11.3461 -0.040238 -5.70026 0.235378 -0.68931 6.69182 11.6332 -44.1937 0.0 0.0 0.0 30.7072 63.6043 -15.2313 -9.60952 0.274809 1.44743 36.5471 -32.569 -5.75289 -2.24252 0.0 0.0 -0.0 0.0 -0.0 54.2093 19.7894 -13.7595 -30.2213 -0.035527 -4.58433 -23.0777 -29.4446 -3.713 28.8667 -0.0 -0.0 0.0 0.0 0.0 
